<svg width="51" height="40" viewBox="0 0 51 40" fill="none" xmlns="http://www.w3.org/2000/svg">
<path d="M11.1263 24.7017L33.2103 11.7973L39.2053 15.3006L17.1213 28.2045L11.1263 24.7017Z" fill="white"/>
<path d="M10.1096 15.8941L32.1782 2.99868V10.0043L10.1096 22.8993V15.8941Z" fill="white"/>
<path d="M2.06481 12.3997L8.04477 15.8937V25.2947L16.0891 29.9952V37.0018L2.06481 28.8074V12.3997Z" fill="white"/>
<path d="M18.1539 37.0013V29.9952L40.2225 17.1007V24.1059L18.1539 37.0013Z" fill="white"/>
<path d="M23.1162 5.89869L9.0765 14.1025L3.08149 10.5992L17.1213 2.39582L23.1162 5.89869Z" fill="white"/>
<path d="M34.243 10.0044V2.99867L48.2668 11.1931V27.6008L42.2873 24.1068V14.7054L34.243 10.0044Z" fill="white"/>
<path d="M27.2154 34.1018L41.2551 25.898L47.2509 29.4013L33.2108 37.6047L27.2154 34.1018Z" fill="white"/>
</svg>
